<svg width="50" height="50" viewBox="0 0 50 50" fill="none" xmlns="http://www.w3.org/2000/svg">
<path d="M29.8165 19.6149C31.7673 19.6149 33.6382 20.3898 35.0177 21.7693C36.3971 23.1487 37.172 25.0196 37.172 26.9704V35.5519H32.2683V26.9704C32.2683 26.3202 32.01 25.6965 31.5502 25.2367C31.0904 24.7769 30.4668 24.5186 29.8165 24.5186C29.1662 24.5186 28.5426 24.7769 28.0828 25.2367C27.623 25.6965 27.3646 26.3202 27.3646 26.9704V35.5519H22.4609V26.9704C22.4609 25.0196 23.2359 23.1487 24.6153 21.7693C25.9948 20.3898 27.8657 19.6149 29.8165 19.6149V19.6149Z" stroke="#008AB3" stroke-width="2" stroke-linecap="round" stroke-linejoin="round"/>
<path d="M17.556 20.8407H12.6523V35.5518H17.556V20.8407Z" stroke="#008AB3" stroke-width="2" stroke-linecap="round" stroke-linejoin="round"/>
<path d="M15.1042 17.163C16.4583 17.163 17.556 16.0652 17.556 14.7111C17.556 13.357 16.4583 12.2593 15.1042 12.2593C13.7501 12.2593 12.6523 13.357 12.6523 14.7111C12.6523 16.0652 13.7501 17.163 15.1042 17.163Z" stroke="#008AB3" stroke-width="2" stroke-linecap="round" stroke-linejoin="round"/>
</svg>
