<svg width="50" height="50" viewBox="0 0 50 50" fill="none" xmlns="http://www.w3.org/2000/svg">
<path d="M38.9704 13.4976C37.7964 14.3256 36.4966 14.959 35.121 15.3732C34.3826 14.5243 33.4014 13.9226 32.31 13.6495C31.2185 13.3764 30.0695 13.4451 29.0184 13.8463C27.9673 14.2475 27.0647 14.9618 26.4328 15.8927C25.8009 16.8235 25.4701 17.926 25.4852 19.051V20.2769C23.3308 20.3328 21.196 19.855 19.271 18.886C17.3459 17.9171 15.6904 16.4871 14.4519 14.7235C14.4519 14.7235 9.54815 25.7568 20.5815 30.6605C18.0567 32.3743 15.0491 33.2336 12 33.1124C23.0333 39.242 36.5185 33.1124 36.5185 19.0142C36.5174 18.6727 36.4846 18.3321 36.4204 17.9967C37.6716 16.7628 38.5546 15.2049 38.9704 13.4976V13.4976Z" stroke="#008AB3" stroke-width="2" stroke-linecap="round" stroke-linejoin="round"/>
</svg>
