<svg width="29" height="29" viewBox="0 0 29 29" fill="none" xmlns="http://www.w3.org/2000/svg">
<path d="M14.5 0C6.50466 0 0 6.50466 0 14.5C0 22.4953 6.50466 29 14.5 29C22.4953 29 29 22.4953 29 14.5C29 6.50466 22.4953 0 14.5 0ZM14.5 27.341C7.41949 27.341 1.65898 21.5805 1.65898 14.5C1.65898 7.41949 7.41949 1.65898 14.5 1.65898C21.5805 1.65898 27.341 7.41949 27.341 14.5C27.341 21.5805 21.5805 27.341 14.5 27.341Z" fill="#008AB3"/>
<path d="M18.8816 7.47646C15.8653 5.31622 11.7159 5.63123 9.63194 8.17876C8.05227 10.1099 8.06672 12.8855 9.66794 15.0854C9.91298 15.4219 10.4032 15.5092 10.7631 15.2798C11.1229 15.0505 11.2159 14.5918 10.9709 14.2551C9.75315 12.5819 9.71803 10.5004 10.8837 9.07535C12.4395 7.17358 15.5974 6.98182 17.9233 8.64766C20.2494 10.3136 20.8761 13.2161 19.3204 15.1178C18.1187 16.587 15.9328 17.0684 13.8722 16.364L14.8941 11.8222C14.9837 11.4236 14.7111 11.0324 14.2852 10.9485C13.8583 10.8644 13.441 11.1197 13.3515 11.5182L11.2496 20.8603C11.1599 21.2589 11.4326 21.6501 11.8585 21.734C11.9133 21.7448 11.9679 21.75 12.0216 21.75C12.3865 21.75 12.714 21.5116 12.7922 21.1643L13.5447 17.8195C14.2813 18.0479 15.0295 18.1598 15.7603 18.1598C17.654 18.1598 19.4292 17.4117 20.5722 16.0143C22.6561 13.4668 21.8978 9.6367 18.8816 7.47646Z" fill="#008AB3"/>
<circle cx="14.5" cy="14.5" r="13.5" stroke="#008AB3" stroke-width="2"/>
</svg>
